G04 #@! TF.FileFunction,Copper,L2,Bot,Signal*
%FSLAX46Y46*%
G04 Gerber Fmt 4.6, Leading zero omitted, Abs format (unit mm)*
G04 Created by KiCad (PCBNEW 4.0.1-stable) date Monday, January 04, 2016 'pmt' 12:40:34 pm*
%MOMM*%
G01*
G04 APERTURE LIST*
%ADD10C,0.100000*%
%ADD11R,0.750000X1.200000*%
%ADD12R,1.727200X2.032000*%
%ADD13O,1.727200X2.032000*%
%ADD14R,0.900000X1.200000*%
%ADD15R,1.600000X0.550000*%
%ADD16R,0.550000X1.600000*%
%ADD17C,0.600000*%
%ADD18C,0.250000*%
%ADD19C,0.200000*%
G04 APERTURE END LIST*
D10*
D11*
X134366000Y-130744000D03*
X134366000Y-128844000D03*
D12*
X145542000Y-120650000D03*
D13*
X143002000Y-120650000D03*
X140462000Y-120650000D03*
D14*
X134366000Y-124630000D03*
X134366000Y-126830000D03*
D15*
X145220000Y-126232000D03*
X145220000Y-127032000D03*
X145220000Y-127832000D03*
X145220000Y-128632000D03*
X145220000Y-129432000D03*
X145220000Y-130232000D03*
X145220000Y-131032000D03*
X145220000Y-131832000D03*
D16*
X143770000Y-133282000D03*
X142970000Y-133282000D03*
X142170000Y-133282000D03*
X141370000Y-133282000D03*
X140570000Y-133282000D03*
X139770000Y-133282000D03*
X138970000Y-133282000D03*
X138170000Y-133282000D03*
D15*
X136720000Y-131832000D03*
X136720000Y-131032000D03*
X136720000Y-130232000D03*
X136720000Y-129432000D03*
X136720000Y-128632000D03*
X136720000Y-127832000D03*
X136720000Y-127032000D03*
X136720000Y-126232000D03*
D16*
X138170000Y-124782000D03*
X138970000Y-124782000D03*
X139770000Y-124782000D03*
X140570000Y-124782000D03*
X141370000Y-124782000D03*
X142170000Y-124782000D03*
X142970000Y-124782000D03*
X143770000Y-124782000D03*
D17*
X132305756Y-131591052D03*
X143764000Y-127762000D03*
X132334000Y-126746000D03*
X132334000Y-129286000D03*
X131318000Y-129286000D03*
X145288000Y-134620000D03*
X142448919Y-126445279D03*
X143037598Y-131826000D03*
X138684000Y-131826000D03*
X140932991Y-129351839D03*
X142405298Y-129289888D03*
D18*
X133152808Y-130744000D02*
X132305756Y-131591052D01*
X134366000Y-130744000D02*
X133152808Y-130744000D01*
X136720000Y-131032000D02*
X134654000Y-131032000D01*
X134654000Y-131032000D02*
X134366000Y-130744000D01*
X132334000Y-126746000D02*
X134282000Y-126746000D01*
X134282000Y-126746000D02*
X134366000Y-126830000D01*
X145220000Y-130232000D02*
X144170000Y-130232000D01*
X144170000Y-130232000D02*
X143764000Y-129826000D01*
X143764000Y-129826000D02*
X143764000Y-128226000D01*
X145220000Y-128632000D02*
X144170000Y-128632000D01*
X144170000Y-128632000D02*
X143764000Y-128226000D01*
X143764000Y-128226000D02*
X143764000Y-127762000D01*
X138430000Y-130372000D02*
X138430000Y-130092000D01*
X138430000Y-130092000D02*
X137770000Y-129432000D01*
X137770000Y-129432000D02*
X136720000Y-129432000D01*
X136720000Y-131032000D02*
X137770000Y-131032000D01*
X137770000Y-131032000D02*
X138430000Y-130372000D01*
X131384000Y-129352000D02*
X131318000Y-129286000D01*
X134554000Y-129286000D02*
X134620000Y-129352000D01*
X143089644Y-127086004D02*
X142448919Y-126445279D01*
X143089644Y-130014149D02*
X143089644Y-127086004D01*
X143770000Y-130694505D02*
X143089644Y-130014149D01*
X143770000Y-133282000D02*
X143770000Y-130694505D01*
X139609002Y-131826000D02*
X143037598Y-131826000D01*
X138970000Y-132465002D02*
X139609002Y-131826000D01*
X138970000Y-133282000D02*
X138970000Y-132465002D01*
X138170000Y-133282000D02*
X138170000Y-132340000D01*
X138170000Y-132340000D02*
X138684000Y-131826000D01*
X140250161Y-129351839D02*
X140932991Y-129351839D01*
X137770000Y-131832000D02*
X140250161Y-129351839D01*
X136720000Y-131832000D02*
X137770000Y-131832000D01*
X141370000Y-128254590D02*
X142405298Y-129289888D01*
X141370000Y-124782000D02*
X141370000Y-128254590D01*
X136930000Y-123190000D02*
X135490000Y-124630000D01*
X135490000Y-124630000D02*
X134366000Y-124630000D01*
X141370000Y-123732000D02*
X141370000Y-124782000D01*
X140828000Y-123190000D02*
X141370000Y-123732000D01*
X136930000Y-123190000D02*
X140828000Y-123190000D01*
D19*
G36*
X148744000Y-135282000D02*
X124052000Y-135282000D01*
X124052000Y-131749484D01*
X131505617Y-131749484D01*
X131627153Y-132043624D01*
X131852001Y-132268864D01*
X132145928Y-132390913D01*
X132464188Y-132391191D01*
X132758328Y-132269655D01*
X132983568Y-132044807D01*
X133105617Y-131750880D01*
X133105683Y-131675009D01*
X133411692Y-131369000D01*
X133485909Y-131369000D01*
X133516069Y-131529289D01*
X133625575Y-131699465D01*
X133792661Y-131813630D01*
X133991000Y-131853795D01*
X134741000Y-131853795D01*
X134926289Y-131818931D01*
X135096465Y-131709425D01*
X135132285Y-131657000D01*
X135410205Y-131657000D01*
X135410205Y-132107000D01*
X135445069Y-132292289D01*
X135554575Y-132462465D01*
X135721661Y-132576630D01*
X135920000Y-132616795D01*
X137385205Y-132616795D01*
X137385205Y-134082000D01*
X137420069Y-134267289D01*
X137529575Y-134437465D01*
X137696661Y-134551630D01*
X137895000Y-134591795D01*
X138445000Y-134591795D01*
X138574590Y-134567411D01*
X138695000Y-134591795D01*
X139245000Y-134591795D01*
X139374590Y-134567411D01*
X139495000Y-134591795D01*
X140045000Y-134591795D01*
X140174590Y-134567411D01*
X140295000Y-134591795D01*
X140845000Y-134591795D01*
X140974590Y-134567411D01*
X141095000Y-134591795D01*
X141645000Y-134591795D01*
X141774590Y-134567411D01*
X141895000Y-134591795D01*
X142445000Y-134591795D01*
X142574590Y-134567411D01*
X142695000Y-134591795D01*
X143245000Y-134591795D01*
X143374590Y-134567411D01*
X143495000Y-134591795D01*
X144045000Y-134591795D01*
X144230289Y-134556931D01*
X144400465Y-134447425D01*
X144514630Y-134280339D01*
X144554795Y-134082000D01*
X144554795Y-132616795D01*
X146020000Y-132616795D01*
X146205289Y-132581931D01*
X146375465Y-132472425D01*
X146489630Y-132305339D01*
X146529795Y-132107000D01*
X146529795Y-131557000D01*
X146505411Y-131427410D01*
X146529795Y-131307000D01*
X146529795Y-130757000D01*
X146505411Y-130627410D01*
X146529795Y-130507000D01*
X146529795Y-129957000D01*
X146507257Y-129837220D01*
X146520000Y-129806456D01*
X146520000Y-129582000D01*
X146395000Y-129457000D01*
X146068369Y-129457000D01*
X146020000Y-129447205D01*
X145175000Y-129447205D01*
X145175000Y-129416795D01*
X146020000Y-129416795D01*
X146072057Y-129407000D01*
X146395000Y-129407000D01*
X146520000Y-129282000D01*
X146520000Y-129057544D01*
X146506103Y-129023994D01*
X146529795Y-128907000D01*
X146529795Y-128357000D01*
X146507257Y-128237220D01*
X146520000Y-128206456D01*
X146520000Y-127982000D01*
X146395000Y-127857000D01*
X146068369Y-127857000D01*
X146020000Y-127847205D01*
X145175000Y-127847205D01*
X145175000Y-127816795D01*
X146020000Y-127816795D01*
X146072057Y-127807000D01*
X146395000Y-127807000D01*
X146520000Y-127682000D01*
X146520000Y-127457544D01*
X146506103Y-127423994D01*
X146529795Y-127307000D01*
X146529795Y-126757000D01*
X146505411Y-126627410D01*
X146529795Y-126507000D01*
X146529795Y-125957000D01*
X146494931Y-125771711D01*
X146385425Y-125601535D01*
X146218339Y-125487370D01*
X146020000Y-125447205D01*
X144554795Y-125447205D01*
X144554795Y-123982000D01*
X144519931Y-123796711D01*
X144410425Y-123626535D01*
X144243339Y-123512370D01*
X144045000Y-123472205D01*
X143495000Y-123472205D01*
X143365410Y-123496589D01*
X143245000Y-123472205D01*
X142695000Y-123472205D01*
X142565410Y-123496589D01*
X142445000Y-123472205D01*
X141933649Y-123472205D01*
X141811942Y-123290058D01*
X141269942Y-122748058D01*
X141067177Y-122612575D01*
X140828000Y-122565000D01*
X136930005Y-122565000D01*
X136930000Y-122564999D01*
X136690823Y-122612575D01*
X136488058Y-122748058D01*
X136488056Y-122748061D01*
X135306842Y-123929274D01*
X135290931Y-123844711D01*
X135181425Y-123674535D01*
X135014339Y-123560370D01*
X134816000Y-123520205D01*
X133916000Y-123520205D01*
X133730711Y-123555069D01*
X133560535Y-123664575D01*
X133446370Y-123831661D01*
X133406205Y-124030000D01*
X133406205Y-125230000D01*
X133441069Y-125415289D01*
X133550575Y-125585465D01*
X133717661Y-125699630D01*
X133865855Y-125729640D01*
X133730711Y-125755069D01*
X133560535Y-125864575D01*
X133446370Y-126031661D01*
X133428278Y-126121000D01*
X132840475Y-126121000D01*
X132787755Y-126068188D01*
X132493828Y-125946139D01*
X132175568Y-125945861D01*
X131881428Y-126067397D01*
X131656188Y-126292245D01*
X131534139Y-126586172D01*
X131533861Y-126904432D01*
X131655397Y-127198572D01*
X131880245Y-127423812D01*
X132174172Y-127545861D01*
X132492432Y-127546139D01*
X132786572Y-127424603D01*
X132840268Y-127371000D01*
X133406205Y-127371000D01*
X133406205Y-127430000D01*
X133441069Y-127615289D01*
X133550575Y-127785465D01*
X133664552Y-127863342D01*
X133567120Y-127960773D01*
X133491000Y-128144544D01*
X133491000Y-128694000D01*
X133616000Y-128819000D01*
X134341000Y-128819000D01*
X134341000Y-128799000D01*
X134391000Y-128799000D01*
X134391000Y-128819000D01*
X135116000Y-128819000D01*
X135241000Y-128694000D01*
X135241000Y-128144544D01*
X135164880Y-127960773D01*
X135066850Y-127862743D01*
X135171465Y-127795425D01*
X135285630Y-127628339D01*
X135325795Y-127430000D01*
X135325795Y-126230000D01*
X135290931Y-126044711D01*
X135181425Y-125874535D01*
X135014339Y-125760370D01*
X134866145Y-125730360D01*
X135001289Y-125704931D01*
X135171465Y-125595425D01*
X135285630Y-125428339D01*
X135320732Y-125255000D01*
X135490000Y-125255000D01*
X135729177Y-125207425D01*
X135931942Y-125071942D01*
X137188883Y-123815000D01*
X137419024Y-123815000D01*
X137385205Y-123982000D01*
X137385205Y-125447205D01*
X135920000Y-125447205D01*
X135734711Y-125482069D01*
X135564535Y-125591575D01*
X135450370Y-125758661D01*
X135410205Y-125957000D01*
X135410205Y-126507000D01*
X135434589Y-126636590D01*
X135410205Y-126757000D01*
X135410205Y-127307000D01*
X135434589Y-127436590D01*
X135410205Y-127557000D01*
X135410205Y-128107000D01*
X135432743Y-128226780D01*
X135420000Y-128257544D01*
X135420000Y-128482000D01*
X135545000Y-128607000D01*
X135871631Y-128607000D01*
X135920000Y-128616795D01*
X137520000Y-128616795D01*
X137572057Y-128607000D01*
X137895000Y-128607000D01*
X138020000Y-128482000D01*
X138020000Y-128257544D01*
X138006103Y-128223994D01*
X138029795Y-128107000D01*
X138029795Y-127557000D01*
X138005411Y-127427410D01*
X138029795Y-127307000D01*
X138029795Y-126757000D01*
X138005411Y-126627410D01*
X138029795Y-126507000D01*
X138029795Y-126091795D01*
X138445000Y-126091795D01*
X138574590Y-126067411D01*
X138695000Y-126091795D01*
X139245000Y-126091795D01*
X139374590Y-126067411D01*
X139495000Y-126091795D01*
X140045000Y-126091795D01*
X140174590Y-126067411D01*
X140295000Y-126091795D01*
X140745000Y-126091795D01*
X140745000Y-128254590D01*
X140792575Y-128493767D01*
X140831318Y-128551750D01*
X140774559Y-128551700D01*
X140480419Y-128673236D01*
X140426723Y-128726839D01*
X140250161Y-128726839D01*
X140010983Y-128774414D01*
X139808219Y-128909897D01*
X138950495Y-129767621D01*
X138871942Y-129650058D01*
X138211942Y-128990058D01*
X138020000Y-128861807D01*
X138020000Y-128782000D01*
X137895000Y-128657000D01*
X137568369Y-128657000D01*
X137520000Y-128647205D01*
X135920000Y-128647205D01*
X135867943Y-128657000D01*
X135545000Y-128657000D01*
X135420000Y-128782000D01*
X135420000Y-129006456D01*
X135433897Y-129040006D01*
X135410205Y-129157000D01*
X135410205Y-129707000D01*
X135434589Y-129836590D01*
X135410205Y-129957000D01*
X135410205Y-130407000D01*
X135250795Y-130407000D01*
X135250795Y-130144000D01*
X135215931Y-129958711D01*
X135106425Y-129788535D01*
X135104730Y-129787377D01*
X135164880Y-129727227D01*
X135241000Y-129543456D01*
X135241000Y-128994000D01*
X135116000Y-128869000D01*
X134391000Y-128869000D01*
X134391000Y-128889000D01*
X134341000Y-128889000D01*
X134341000Y-128869000D01*
X133616000Y-128869000D01*
X133491000Y-128994000D01*
X133491000Y-129543456D01*
X133567120Y-129727227D01*
X133628607Y-129788714D01*
X133521370Y-129945661D01*
X133486268Y-130119000D01*
X133152813Y-130119000D01*
X133152808Y-130118999D01*
X132913631Y-130166575D01*
X132710866Y-130302058D01*
X132221946Y-130790978D01*
X132147324Y-130790913D01*
X131853184Y-130912449D01*
X131627944Y-131137297D01*
X131505895Y-131431224D01*
X131505617Y-131749484D01*
X124052000Y-131749484D01*
X124052000Y-120675000D01*
X139098400Y-120675000D01*
X139098400Y-120827400D01*
X139211765Y-121347324D01*
X139515467Y-121784288D01*
X139963270Y-122071769D01*
X140224030Y-122145075D01*
X140437000Y-122040748D01*
X140437000Y-120675000D01*
X139098400Y-120675000D01*
X124052000Y-120675000D01*
X124052000Y-120472600D01*
X139098400Y-120472600D01*
X139098400Y-120625000D01*
X140437000Y-120625000D01*
X140437000Y-119259252D01*
X140487000Y-119259252D01*
X140487000Y-120625000D01*
X140507000Y-120625000D01*
X140507000Y-120675000D01*
X140487000Y-120675000D01*
X140487000Y-122040748D01*
X140699970Y-122145075D01*
X140960730Y-122071769D01*
X141408533Y-121784288D01*
X141712235Y-121347324D01*
X141727217Y-121278612D01*
X141742198Y-121353927D01*
X142037789Y-121796311D01*
X142480173Y-122091902D01*
X143002000Y-122195700D01*
X143523827Y-122091902D01*
X143966211Y-121796311D01*
X144168605Y-121493406D01*
X144168605Y-121666000D01*
X144203469Y-121851289D01*
X144312975Y-122021465D01*
X144480061Y-122135630D01*
X144678400Y-122175795D01*
X146405600Y-122175795D01*
X146590889Y-122140931D01*
X146761065Y-122031425D01*
X146875230Y-121864339D01*
X146915395Y-121666000D01*
X146915395Y-119634000D01*
X146880531Y-119448711D01*
X146771025Y-119278535D01*
X146603939Y-119164370D01*
X146405600Y-119124205D01*
X144678400Y-119124205D01*
X144493111Y-119159069D01*
X144322935Y-119268575D01*
X144208770Y-119435661D01*
X144168605Y-119634000D01*
X144168605Y-119806594D01*
X143966211Y-119503689D01*
X143523827Y-119208098D01*
X143002000Y-119104300D01*
X142480173Y-119208098D01*
X142037789Y-119503689D01*
X141742198Y-119946073D01*
X141727217Y-120021388D01*
X141712235Y-119952676D01*
X141408533Y-119515712D01*
X140960730Y-119228231D01*
X140699970Y-119154925D01*
X140487000Y-119259252D01*
X140437000Y-119259252D01*
X140224030Y-119154925D01*
X139963270Y-119228231D01*
X139515467Y-119515712D01*
X139211765Y-119952676D01*
X139098400Y-120472600D01*
X124052000Y-120472600D01*
X124052000Y-118718000D01*
X148744000Y-118718000D01*
X148744000Y-135282000D01*
X148744000Y-135282000D01*
G37*
X148744000Y-135282000D02*
X124052000Y-135282000D01*
X124052000Y-131749484D01*
X131505617Y-131749484D01*
X131627153Y-132043624D01*
X131852001Y-132268864D01*
X132145928Y-132390913D01*
X132464188Y-132391191D01*
X132758328Y-132269655D01*
X132983568Y-132044807D01*
X133105617Y-131750880D01*
X133105683Y-131675009D01*
X133411692Y-131369000D01*
X133485909Y-131369000D01*
X133516069Y-131529289D01*
X133625575Y-131699465D01*
X133792661Y-131813630D01*
X133991000Y-131853795D01*
X134741000Y-131853795D01*
X134926289Y-131818931D01*
X135096465Y-131709425D01*
X135132285Y-131657000D01*
X135410205Y-131657000D01*
X135410205Y-132107000D01*
X135445069Y-132292289D01*
X135554575Y-132462465D01*
X135721661Y-132576630D01*
X135920000Y-132616795D01*
X137385205Y-132616795D01*
X137385205Y-134082000D01*
X137420069Y-134267289D01*
X137529575Y-134437465D01*
X137696661Y-134551630D01*
X137895000Y-134591795D01*
X138445000Y-134591795D01*
X138574590Y-134567411D01*
X138695000Y-134591795D01*
X139245000Y-134591795D01*
X139374590Y-134567411D01*
X139495000Y-134591795D01*
X140045000Y-134591795D01*
X140174590Y-134567411D01*
X140295000Y-134591795D01*
X140845000Y-134591795D01*
X140974590Y-134567411D01*
X141095000Y-134591795D01*
X141645000Y-134591795D01*
X141774590Y-134567411D01*
X141895000Y-134591795D01*
X142445000Y-134591795D01*
X142574590Y-134567411D01*
X142695000Y-134591795D01*
X143245000Y-134591795D01*
X143374590Y-134567411D01*
X143495000Y-134591795D01*
X144045000Y-134591795D01*
X144230289Y-134556931D01*
X144400465Y-134447425D01*
X144514630Y-134280339D01*
X144554795Y-134082000D01*
X144554795Y-132616795D01*
X146020000Y-132616795D01*
X146205289Y-132581931D01*
X146375465Y-132472425D01*
X146489630Y-132305339D01*
X146529795Y-132107000D01*
X146529795Y-131557000D01*
X146505411Y-131427410D01*
X146529795Y-131307000D01*
X146529795Y-130757000D01*
X146505411Y-130627410D01*
X146529795Y-130507000D01*
X146529795Y-129957000D01*
X146507257Y-129837220D01*
X146520000Y-129806456D01*
X146520000Y-129582000D01*
X146395000Y-129457000D01*
X146068369Y-129457000D01*
X146020000Y-129447205D01*
X145175000Y-129447205D01*
X145175000Y-129416795D01*
X146020000Y-129416795D01*
X146072057Y-129407000D01*
X146395000Y-129407000D01*
X146520000Y-129282000D01*
X146520000Y-129057544D01*
X146506103Y-129023994D01*
X146529795Y-128907000D01*
X146529795Y-128357000D01*
X146507257Y-128237220D01*
X146520000Y-128206456D01*
X146520000Y-127982000D01*
X146395000Y-127857000D01*
X146068369Y-127857000D01*
X146020000Y-127847205D01*
X145175000Y-127847205D01*
X145175000Y-127816795D01*
X146020000Y-127816795D01*
X146072057Y-127807000D01*
X146395000Y-127807000D01*
X146520000Y-127682000D01*
X146520000Y-127457544D01*
X146506103Y-127423994D01*
X146529795Y-127307000D01*
X146529795Y-126757000D01*
X146505411Y-126627410D01*
X146529795Y-126507000D01*
X146529795Y-125957000D01*
X146494931Y-125771711D01*
X146385425Y-125601535D01*
X146218339Y-125487370D01*
X146020000Y-125447205D01*
X144554795Y-125447205D01*
X144554795Y-123982000D01*
X144519931Y-123796711D01*
X144410425Y-123626535D01*
X144243339Y-123512370D01*
X144045000Y-123472205D01*
X143495000Y-123472205D01*
X143365410Y-123496589D01*
X143245000Y-123472205D01*
X142695000Y-123472205D01*
X142565410Y-123496589D01*
X142445000Y-123472205D01*
X141933649Y-123472205D01*
X141811942Y-123290058D01*
X141269942Y-122748058D01*
X141067177Y-122612575D01*
X140828000Y-122565000D01*
X136930005Y-122565000D01*
X136930000Y-122564999D01*
X136690823Y-122612575D01*
X136488058Y-122748058D01*
X136488056Y-122748061D01*
X135306842Y-123929274D01*
X135290931Y-123844711D01*
X135181425Y-123674535D01*
X135014339Y-123560370D01*
X134816000Y-123520205D01*
X133916000Y-123520205D01*
X133730711Y-123555069D01*
X133560535Y-123664575D01*
X133446370Y-123831661D01*
X133406205Y-124030000D01*
X133406205Y-125230000D01*
X133441069Y-125415289D01*
X133550575Y-125585465D01*
X133717661Y-125699630D01*
X133865855Y-125729640D01*
X133730711Y-125755069D01*
X133560535Y-125864575D01*
X133446370Y-126031661D01*
X133428278Y-126121000D01*
X132840475Y-126121000D01*
X132787755Y-126068188D01*
X132493828Y-125946139D01*
X132175568Y-125945861D01*
X131881428Y-126067397D01*
X131656188Y-126292245D01*
X131534139Y-126586172D01*
X131533861Y-126904432D01*
X131655397Y-127198572D01*
X131880245Y-127423812D01*
X132174172Y-127545861D01*
X132492432Y-127546139D01*
X132786572Y-127424603D01*
X132840268Y-127371000D01*
X133406205Y-127371000D01*
X133406205Y-127430000D01*
X133441069Y-127615289D01*
X133550575Y-127785465D01*
X133664552Y-127863342D01*
X133567120Y-127960773D01*
X133491000Y-128144544D01*
X133491000Y-128694000D01*
X133616000Y-128819000D01*
X134341000Y-128819000D01*
X134341000Y-128799000D01*
X134391000Y-128799000D01*
X134391000Y-128819000D01*
X135116000Y-128819000D01*
X135241000Y-128694000D01*
X135241000Y-128144544D01*
X135164880Y-127960773D01*
X135066850Y-127862743D01*
X135171465Y-127795425D01*
X135285630Y-127628339D01*
X135325795Y-127430000D01*
X135325795Y-126230000D01*
X135290931Y-126044711D01*
X135181425Y-125874535D01*
X135014339Y-125760370D01*
X134866145Y-125730360D01*
X135001289Y-125704931D01*
X135171465Y-125595425D01*
X135285630Y-125428339D01*
X135320732Y-125255000D01*
X135490000Y-125255000D01*
X135729177Y-125207425D01*
X135931942Y-125071942D01*
X137188883Y-123815000D01*
X137419024Y-123815000D01*
X137385205Y-123982000D01*
X137385205Y-125447205D01*
X135920000Y-125447205D01*
X135734711Y-125482069D01*
X135564535Y-125591575D01*
X135450370Y-125758661D01*
X135410205Y-125957000D01*
X135410205Y-126507000D01*
X135434589Y-126636590D01*
X135410205Y-126757000D01*
X135410205Y-127307000D01*
X135434589Y-127436590D01*
X135410205Y-127557000D01*
X135410205Y-128107000D01*
X135432743Y-128226780D01*
X135420000Y-128257544D01*
X135420000Y-128482000D01*
X135545000Y-128607000D01*
X135871631Y-128607000D01*
X135920000Y-128616795D01*
X137520000Y-128616795D01*
X137572057Y-128607000D01*
X137895000Y-128607000D01*
X138020000Y-128482000D01*
X138020000Y-128257544D01*
X138006103Y-128223994D01*
X138029795Y-128107000D01*
X138029795Y-127557000D01*
X138005411Y-127427410D01*
X138029795Y-127307000D01*
X138029795Y-126757000D01*
X138005411Y-126627410D01*
X138029795Y-126507000D01*
X138029795Y-126091795D01*
X138445000Y-126091795D01*
X138574590Y-126067411D01*
X138695000Y-126091795D01*
X139245000Y-126091795D01*
X139374590Y-126067411D01*
X139495000Y-126091795D01*
X140045000Y-126091795D01*
X140174590Y-126067411D01*
X140295000Y-126091795D01*
X140745000Y-126091795D01*
X140745000Y-128254590D01*
X140792575Y-128493767D01*
X140831318Y-128551750D01*
X140774559Y-128551700D01*
X140480419Y-128673236D01*
X140426723Y-128726839D01*
X140250161Y-128726839D01*
X140010983Y-128774414D01*
X139808219Y-128909897D01*
X138950495Y-129767621D01*
X138871942Y-129650058D01*
X138211942Y-128990058D01*
X138020000Y-128861807D01*
X138020000Y-128782000D01*
X137895000Y-128657000D01*
X137568369Y-128657000D01*
X137520000Y-128647205D01*
X135920000Y-128647205D01*
X135867943Y-128657000D01*
X135545000Y-128657000D01*
X135420000Y-128782000D01*
X135420000Y-129006456D01*
X135433897Y-129040006D01*
X135410205Y-129157000D01*
X135410205Y-129707000D01*
X135434589Y-129836590D01*
X135410205Y-129957000D01*
X135410205Y-130407000D01*
X135250795Y-130407000D01*
X135250795Y-130144000D01*
X135215931Y-129958711D01*
X135106425Y-129788535D01*
X135104730Y-129787377D01*
X135164880Y-129727227D01*
X135241000Y-129543456D01*
X135241000Y-128994000D01*
X135116000Y-128869000D01*
X134391000Y-128869000D01*
X134391000Y-128889000D01*
X134341000Y-128889000D01*
X134341000Y-128869000D01*
X133616000Y-128869000D01*
X133491000Y-128994000D01*
X133491000Y-129543456D01*
X133567120Y-129727227D01*
X133628607Y-129788714D01*
X133521370Y-129945661D01*
X133486268Y-130119000D01*
X133152813Y-130119000D01*
X133152808Y-130118999D01*
X132913631Y-130166575D01*
X132710866Y-130302058D01*
X132221946Y-130790978D01*
X132147324Y-130790913D01*
X131853184Y-130912449D01*
X131627944Y-131137297D01*
X131505895Y-131431224D01*
X131505617Y-131749484D01*
X124052000Y-131749484D01*
X124052000Y-120675000D01*
X139098400Y-120675000D01*
X139098400Y-120827400D01*
X139211765Y-121347324D01*
X139515467Y-121784288D01*
X139963270Y-122071769D01*
X140224030Y-122145075D01*
X140437000Y-122040748D01*
X140437000Y-120675000D01*
X139098400Y-120675000D01*
X124052000Y-120675000D01*
X124052000Y-120472600D01*
X139098400Y-120472600D01*
X139098400Y-120625000D01*
X140437000Y-120625000D01*
X140437000Y-119259252D01*
X140487000Y-119259252D01*
X140487000Y-120625000D01*
X140507000Y-120625000D01*
X140507000Y-120675000D01*
X140487000Y-120675000D01*
X140487000Y-122040748D01*
X140699970Y-122145075D01*
X140960730Y-122071769D01*
X141408533Y-121784288D01*
X141712235Y-121347324D01*
X141727217Y-121278612D01*
X141742198Y-121353927D01*
X142037789Y-121796311D01*
X142480173Y-122091902D01*
X143002000Y-122195700D01*
X143523827Y-122091902D01*
X143966211Y-121796311D01*
X144168605Y-121493406D01*
X144168605Y-121666000D01*
X144203469Y-121851289D01*
X144312975Y-122021465D01*
X144480061Y-122135630D01*
X144678400Y-122175795D01*
X146405600Y-122175795D01*
X146590889Y-122140931D01*
X146761065Y-122031425D01*
X146875230Y-121864339D01*
X146915395Y-121666000D01*
X146915395Y-119634000D01*
X146880531Y-119448711D01*
X146771025Y-119278535D01*
X146603939Y-119164370D01*
X146405600Y-119124205D01*
X144678400Y-119124205D01*
X144493111Y-119159069D01*
X144322935Y-119268575D01*
X144208770Y-119435661D01*
X144168605Y-119634000D01*
X144168605Y-119806594D01*
X143966211Y-119503689D01*
X143523827Y-119208098D01*
X143002000Y-119104300D01*
X142480173Y-119208098D01*
X142037789Y-119503689D01*
X141742198Y-119946073D01*
X141727217Y-120021388D01*
X141712235Y-119952676D01*
X141408533Y-119515712D01*
X140960730Y-119228231D01*
X140699970Y-119154925D01*
X140487000Y-119259252D01*
X140437000Y-119259252D01*
X140224030Y-119154925D01*
X139963270Y-119228231D01*
X139515467Y-119515712D01*
X139211765Y-119952676D01*
X139098400Y-120472600D01*
X124052000Y-120472600D01*
X124052000Y-118718000D01*
X148744000Y-118718000D01*
X148744000Y-135282000D01*
M02*
