G04 #@! TF.FileFunction,Copper,L1,Top,Signal*
%FSLAX46Y46*%
G04 Gerber Fmt 4.6, Leading zero omitted, Abs format (unit mm)*
G04 Created by KiCad (PCBNEW 4.0.1-stable) date Monday, January 04, 2016 'pmt' 12:50:12 pm*
%MOMM*%
G01*
G04 APERTURE LIST*
%ADD10C,0.100000*%
%ADD11R,2.397760X2.799080*%
%ADD12R,1.899920X1.018540*%
%ADD13R,1.727200X2.032000*%
%ADD14O,1.727200X2.032000*%
%ADD15R,1.200000X0.900000*%
%ADD16C,0.600000*%
%ADD17C,1.000000*%
%ADD18C,0.250000*%
%ADD19C,0.200000*%
G04 APERTURE END LIST*
D10*
D11*
X137017760Y-129286000D03*
X137017760Y-123187460D03*
X125618240Y-129286000D03*
X125618240Y-123187460D03*
D12*
X140914120Y-128016000D03*
X146613880Y-128016000D03*
X140914120Y-130556000D03*
X146613880Y-130556000D03*
X140914120Y-133096000D03*
X146613880Y-133096000D03*
D13*
X145542000Y-120650000D03*
D14*
X143002000Y-120650000D03*
X140462000Y-120650000D03*
D15*
X142324000Y-124968000D03*
X140124000Y-124968000D03*
D16*
X130048000Y-126238000D03*
X132422835Y-131891117D03*
X143764000Y-127762000D03*
X131664339Y-129278523D03*
X130959476Y-128941411D03*
X147347577Y-134825499D03*
X142448919Y-126445279D03*
X143037598Y-131826000D03*
X138684000Y-131826000D03*
X140932991Y-129351839D03*
X142405298Y-129289888D03*
D17*
X131671816Y-129286000D02*
X131664339Y-129278523D01*
X137017760Y-129286000D02*
X131671816Y-129286000D01*
X131296588Y-129278523D02*
X131664339Y-129278523D01*
X130959476Y-128941411D02*
X131296588Y-129278523D01*
D18*
X147047578Y-134525500D02*
X147347577Y-134825499D01*
X146613880Y-134091802D02*
X147047578Y-134525500D01*
X146613880Y-133096000D02*
X146613880Y-134091802D01*
X141751279Y-126445279D02*
X142448919Y-126445279D01*
X140274000Y-124968000D02*
X141751279Y-126445279D01*
X140124000Y-124968000D02*
X140274000Y-124968000D01*
X140208000Y-125052000D02*
X140124000Y-124968000D01*
X144307598Y-130556000D02*
X143037598Y-131826000D01*
X146613880Y-130556000D02*
X144307598Y-130556000D01*
X139192000Y-131318000D02*
X139192000Y-129297430D01*
X139192000Y-129297430D02*
X140473430Y-128016000D01*
X140473430Y-128016000D02*
X140914120Y-128016000D01*
X138684000Y-131826000D02*
X139192000Y-131318000D01*
X140914120Y-129370710D02*
X140932991Y-129351839D01*
X140914120Y-130556000D02*
X140914120Y-129370710D01*
X142405298Y-132045512D02*
X142405298Y-129289888D01*
X141354810Y-133096000D02*
X142405298Y-132045512D01*
X140914120Y-133096000D02*
X141354810Y-133096000D01*
X143002000Y-121158000D02*
X143002000Y-124290000D01*
X143002000Y-124290000D02*
X142324000Y-124968000D01*
D19*
G36*
X148744000Y-135282000D02*
X148022638Y-135282000D01*
X148025389Y-135279254D01*
X148147438Y-134985327D01*
X148147716Y-134667067D01*
X148026180Y-134372927D01*
X147801332Y-134147687D01*
X147673210Y-134094486D01*
X147749129Y-134080201D01*
X147919305Y-133970695D01*
X148033470Y-133803609D01*
X148073635Y-133605270D01*
X148073635Y-132586730D01*
X148038771Y-132401441D01*
X147929265Y-132231265D01*
X147762179Y-132117100D01*
X147563840Y-132076935D01*
X145663920Y-132076935D01*
X145478631Y-132111799D01*
X145308455Y-132221305D01*
X145194290Y-132388391D01*
X145154125Y-132586730D01*
X145154125Y-133605270D01*
X145188989Y-133790559D01*
X145298495Y-133960735D01*
X145465581Y-134074900D01*
X145663920Y-134115065D01*
X145993507Y-134115065D01*
X146036455Y-134330979D01*
X146171938Y-134533744D01*
X146547503Y-134909308D01*
X146547438Y-134983931D01*
X146668974Y-135278071D01*
X146672896Y-135282000D01*
X124052000Y-135282000D01*
X124052000Y-131025287D01*
X124136133Y-131109419D01*
X124319904Y-131185540D01*
X125468240Y-131185540D01*
X125593240Y-131060540D01*
X125593240Y-129311000D01*
X125643240Y-129311000D01*
X125643240Y-131060540D01*
X125768240Y-131185540D01*
X126916576Y-131185540D01*
X127100347Y-131109419D01*
X127241000Y-130968767D01*
X127317120Y-130784996D01*
X127317120Y-129436000D01*
X127192120Y-129311000D01*
X125643240Y-129311000D01*
X125593240Y-129311000D01*
X125573240Y-129311000D01*
X125573240Y-129261000D01*
X125593240Y-129261000D01*
X125593240Y-127511460D01*
X125643240Y-127511460D01*
X125643240Y-129261000D01*
X127192120Y-129261000D01*
X127317120Y-129136000D01*
X127317120Y-128941411D01*
X129959476Y-128941411D01*
X130035596Y-129324095D01*
X130252369Y-129648518D01*
X130589481Y-129985630D01*
X130913905Y-130202403D01*
X131296588Y-130278523D01*
X131634226Y-130278523D01*
X131671816Y-130286000D01*
X135309085Y-130286000D01*
X135309085Y-130685540D01*
X135343949Y-130870829D01*
X135453455Y-131041005D01*
X135620541Y-131155170D01*
X135818880Y-131195335D01*
X138183406Y-131195335D01*
X138006188Y-131372245D01*
X137884139Y-131666172D01*
X137883861Y-131984432D01*
X138005397Y-132278572D01*
X138230245Y-132503812D01*
X138524172Y-132625861D01*
X138842432Y-132626139D01*
X139136572Y-132504603D01*
X139361812Y-132279755D01*
X139483861Y-131985828D01*
X139483927Y-131909956D01*
X139633939Y-131759944D01*
X139633942Y-131759942D01*
X139769425Y-131557177D01*
X139773545Y-131536464D01*
X139964160Y-131575065D01*
X141780298Y-131575065D01*
X141780298Y-131786629D01*
X141489992Y-132076935D01*
X139964160Y-132076935D01*
X139778871Y-132111799D01*
X139608695Y-132221305D01*
X139494530Y-132388391D01*
X139454365Y-132586730D01*
X139454365Y-133605270D01*
X139489229Y-133790559D01*
X139598735Y-133960735D01*
X139765821Y-134074900D01*
X139964160Y-134115065D01*
X141864080Y-134115065D01*
X142049369Y-134080201D01*
X142219545Y-133970695D01*
X142333710Y-133803609D01*
X142373875Y-133605270D01*
X142373875Y-132960818D01*
X142758399Y-132576294D01*
X142877770Y-132625861D01*
X143196030Y-132626139D01*
X143490170Y-132504603D01*
X143715410Y-132279755D01*
X143837459Y-131985828D01*
X143837525Y-131909957D01*
X144566482Y-131181000D01*
X145175901Y-131181000D01*
X145188989Y-131250559D01*
X145298495Y-131420735D01*
X145465581Y-131534900D01*
X145663920Y-131575065D01*
X147563840Y-131575065D01*
X147749129Y-131540201D01*
X147919305Y-131430695D01*
X148033470Y-131263609D01*
X148073635Y-131065270D01*
X148073635Y-130046730D01*
X148038771Y-129861441D01*
X147929265Y-129691265D01*
X147762179Y-129577100D01*
X147563840Y-129536935D01*
X145663920Y-129536935D01*
X145478631Y-129571799D01*
X145308455Y-129681305D01*
X145194290Y-129848391D01*
X145177561Y-129931000D01*
X144307598Y-129931000D01*
X144068420Y-129978575D01*
X143865656Y-130114058D01*
X143030298Y-130949416D01*
X143030298Y-129796363D01*
X143083110Y-129743643D01*
X143205159Y-129449716D01*
X143205437Y-129131456D01*
X143083901Y-128837316D01*
X142859053Y-128612076D01*
X142565126Y-128490027D01*
X142373875Y-128489860D01*
X142373875Y-128166000D01*
X145163920Y-128166000D01*
X145163920Y-128624726D01*
X145240040Y-128808497D01*
X145380693Y-128949149D01*
X145564464Y-129025270D01*
X146463880Y-129025270D01*
X146588880Y-128900270D01*
X146588880Y-128041000D01*
X146638880Y-128041000D01*
X146638880Y-128900270D01*
X146763880Y-129025270D01*
X147663296Y-129025270D01*
X147847067Y-128949149D01*
X147987720Y-128808497D01*
X148063840Y-128624726D01*
X148063840Y-128166000D01*
X147938840Y-128041000D01*
X146638880Y-128041000D01*
X146588880Y-128041000D01*
X145288920Y-128041000D01*
X145163920Y-128166000D01*
X142373875Y-128166000D01*
X142373875Y-127506730D01*
X142355162Y-127407274D01*
X145163920Y-127407274D01*
X145163920Y-127866000D01*
X145288920Y-127991000D01*
X146588880Y-127991000D01*
X146588880Y-127131730D01*
X146638880Y-127131730D01*
X146638880Y-127991000D01*
X147938840Y-127991000D01*
X148063840Y-127866000D01*
X148063840Y-127407274D01*
X147987720Y-127223503D01*
X147847067Y-127082851D01*
X147663296Y-127006730D01*
X146763880Y-127006730D01*
X146638880Y-127131730D01*
X146588880Y-127131730D01*
X146463880Y-127006730D01*
X145564464Y-127006730D01*
X145380693Y-127082851D01*
X145240040Y-127223503D01*
X145163920Y-127407274D01*
X142355162Y-127407274D01*
X142339011Y-127321441D01*
X142289913Y-127245141D01*
X142607351Y-127245418D01*
X142901491Y-127123882D01*
X143126731Y-126899034D01*
X143248780Y-126605107D01*
X143249058Y-126286847D01*
X143127522Y-125992707D01*
X143040787Y-125905820D01*
X143109289Y-125892931D01*
X143279465Y-125783425D01*
X143393630Y-125616339D01*
X143433795Y-125418000D01*
X143433795Y-124742089D01*
X143443942Y-124731942D01*
X143579425Y-124529177D01*
X143627001Y-124290000D01*
X143627000Y-124289995D01*
X143627000Y-122022964D01*
X143966211Y-121796311D01*
X144178400Y-121478747D01*
X144178400Y-121765456D01*
X144254520Y-121949227D01*
X144395173Y-122089879D01*
X144578944Y-122166000D01*
X145392000Y-122166000D01*
X145517000Y-122041000D01*
X145517000Y-120675000D01*
X145567000Y-120675000D01*
X145567000Y-122041000D01*
X145692000Y-122166000D01*
X146505056Y-122166000D01*
X146688827Y-122089879D01*
X146829480Y-121949227D01*
X146905600Y-121765456D01*
X146905600Y-120800000D01*
X146780600Y-120675000D01*
X145567000Y-120675000D01*
X145517000Y-120675000D01*
X145497000Y-120675000D01*
X145497000Y-120625000D01*
X145517000Y-120625000D01*
X145517000Y-119259000D01*
X145567000Y-119259000D01*
X145567000Y-120625000D01*
X146780600Y-120625000D01*
X146905600Y-120500000D01*
X146905600Y-119534544D01*
X146829480Y-119350773D01*
X146688827Y-119210121D01*
X146505056Y-119134000D01*
X145692000Y-119134000D01*
X145567000Y-119259000D01*
X145517000Y-119259000D01*
X145392000Y-119134000D01*
X144578944Y-119134000D01*
X144395173Y-119210121D01*
X144254520Y-119350773D01*
X144178400Y-119534544D01*
X144178400Y-119821253D01*
X143966211Y-119503689D01*
X143523827Y-119208098D01*
X143002000Y-119104300D01*
X142480173Y-119208098D01*
X142037789Y-119503689D01*
X141742198Y-119946073D01*
X141732000Y-119997342D01*
X141721802Y-119946073D01*
X141426211Y-119503689D01*
X140983827Y-119208098D01*
X140462000Y-119104300D01*
X139940173Y-119208098D01*
X139497789Y-119503689D01*
X139202198Y-119946073D01*
X139098400Y-120467900D01*
X139098400Y-120832100D01*
X139202198Y-121353927D01*
X139497789Y-121796311D01*
X139940173Y-122091902D01*
X140462000Y-122195700D01*
X140983827Y-122091902D01*
X141426211Y-121796311D01*
X141721802Y-121353927D01*
X141732000Y-121302658D01*
X141742198Y-121353927D01*
X142037789Y-121796311D01*
X142377000Y-122022964D01*
X142377000Y-124008205D01*
X141724000Y-124008205D01*
X141538711Y-124043069D01*
X141368535Y-124152575D01*
X141254370Y-124319661D01*
X141224360Y-124467855D01*
X141198931Y-124332711D01*
X141089425Y-124162535D01*
X140922339Y-124048370D01*
X140724000Y-124008205D01*
X139524000Y-124008205D01*
X139338711Y-124043069D01*
X139168535Y-124152575D01*
X139054370Y-124319661D01*
X139014205Y-124518000D01*
X139014205Y-125418000D01*
X139049069Y-125603289D01*
X139158575Y-125773465D01*
X139325661Y-125887630D01*
X139524000Y-125927795D01*
X140349911Y-125927795D01*
X141309337Y-126887221D01*
X141473536Y-126996935D01*
X139964160Y-126996935D01*
X139778871Y-127031799D01*
X139608695Y-127141305D01*
X139494530Y-127308391D01*
X139454365Y-127506730D01*
X139454365Y-128151181D01*
X138750058Y-128855488D01*
X138726435Y-128890842D01*
X138726435Y-127886460D01*
X138691571Y-127701171D01*
X138582065Y-127530995D01*
X138414979Y-127416830D01*
X138216640Y-127376665D01*
X135818880Y-127376665D01*
X135633591Y-127411529D01*
X135463415Y-127521035D01*
X135349250Y-127688121D01*
X135309085Y-127886460D01*
X135309085Y-128286000D01*
X131718279Y-128286000D01*
X131666583Y-128234304D01*
X131342160Y-128017531D01*
X130959476Y-127941411D01*
X130576792Y-128017531D01*
X130252369Y-128234304D01*
X130035596Y-128558727D01*
X129959476Y-128941411D01*
X127317120Y-128941411D01*
X127317120Y-127787004D01*
X127241000Y-127603233D01*
X127100347Y-127462581D01*
X126916576Y-127386460D01*
X125768240Y-127386460D01*
X125643240Y-127511460D01*
X125593240Y-127511460D01*
X125468240Y-127386460D01*
X124319904Y-127386460D01*
X124136133Y-127462581D01*
X124052000Y-127546713D01*
X124052000Y-124926747D01*
X124136133Y-125010879D01*
X124319904Y-125087000D01*
X125468240Y-125087000D01*
X125593240Y-124962000D01*
X125593240Y-123212460D01*
X125643240Y-123212460D01*
X125643240Y-124962000D01*
X125768240Y-125087000D01*
X126916576Y-125087000D01*
X127100347Y-125010879D01*
X127241000Y-124870227D01*
X127317120Y-124686456D01*
X127317120Y-123337460D01*
X127192120Y-123212460D01*
X125643240Y-123212460D01*
X125593240Y-123212460D01*
X125573240Y-123212460D01*
X125573240Y-123162460D01*
X125593240Y-123162460D01*
X125593240Y-121412920D01*
X125643240Y-121412920D01*
X125643240Y-123162460D01*
X127192120Y-123162460D01*
X127317120Y-123037460D01*
X127317120Y-121787920D01*
X135309085Y-121787920D01*
X135309085Y-124587000D01*
X135343949Y-124772289D01*
X135453455Y-124942465D01*
X135620541Y-125056630D01*
X135818880Y-125096795D01*
X138216640Y-125096795D01*
X138401929Y-125061931D01*
X138572105Y-124952425D01*
X138686270Y-124785339D01*
X138726435Y-124587000D01*
X138726435Y-121787920D01*
X138691571Y-121602631D01*
X138582065Y-121432455D01*
X138414979Y-121318290D01*
X138216640Y-121278125D01*
X135818880Y-121278125D01*
X135633591Y-121312989D01*
X135463415Y-121422495D01*
X135349250Y-121589581D01*
X135309085Y-121787920D01*
X127317120Y-121787920D01*
X127317120Y-121688464D01*
X127241000Y-121504693D01*
X127100347Y-121364041D01*
X126916576Y-121287920D01*
X125768240Y-121287920D01*
X125643240Y-121412920D01*
X125593240Y-121412920D01*
X125468240Y-121287920D01*
X124319904Y-121287920D01*
X124136133Y-121364041D01*
X124052000Y-121448173D01*
X124052000Y-118718000D01*
X148744000Y-118718000D01*
X148744000Y-135282000D01*
X148744000Y-135282000D01*
G37*
X148744000Y-135282000D02*
X148022638Y-135282000D01*
X148025389Y-135279254D01*
X148147438Y-134985327D01*
X148147716Y-134667067D01*
X148026180Y-134372927D01*
X147801332Y-134147687D01*
X147673210Y-134094486D01*
X147749129Y-134080201D01*
X147919305Y-133970695D01*
X148033470Y-133803609D01*
X148073635Y-133605270D01*
X148073635Y-132586730D01*
X148038771Y-132401441D01*
X147929265Y-132231265D01*
X147762179Y-132117100D01*
X147563840Y-132076935D01*
X145663920Y-132076935D01*
X145478631Y-132111799D01*
X145308455Y-132221305D01*
X145194290Y-132388391D01*
X145154125Y-132586730D01*
X145154125Y-133605270D01*
X145188989Y-133790559D01*
X145298495Y-133960735D01*
X145465581Y-134074900D01*
X145663920Y-134115065D01*
X145993507Y-134115065D01*
X146036455Y-134330979D01*
X146171938Y-134533744D01*
X146547503Y-134909308D01*
X146547438Y-134983931D01*
X146668974Y-135278071D01*
X146672896Y-135282000D01*
X124052000Y-135282000D01*
X124052000Y-131025287D01*
X124136133Y-131109419D01*
X124319904Y-131185540D01*
X125468240Y-131185540D01*
X125593240Y-131060540D01*
X125593240Y-129311000D01*
X125643240Y-129311000D01*
X125643240Y-131060540D01*
X125768240Y-131185540D01*
X126916576Y-131185540D01*
X127100347Y-131109419D01*
X127241000Y-130968767D01*
X127317120Y-130784996D01*
X127317120Y-129436000D01*
X127192120Y-129311000D01*
X125643240Y-129311000D01*
X125593240Y-129311000D01*
X125573240Y-129311000D01*
X125573240Y-129261000D01*
X125593240Y-129261000D01*
X125593240Y-127511460D01*
X125643240Y-127511460D01*
X125643240Y-129261000D01*
X127192120Y-129261000D01*
X127317120Y-129136000D01*
X127317120Y-128941411D01*
X129959476Y-128941411D01*
X130035596Y-129324095D01*
X130252369Y-129648518D01*
X130589481Y-129985630D01*
X130913905Y-130202403D01*
X131296588Y-130278523D01*
X131634226Y-130278523D01*
X131671816Y-130286000D01*
X135309085Y-130286000D01*
X135309085Y-130685540D01*
X135343949Y-130870829D01*
X135453455Y-131041005D01*
X135620541Y-131155170D01*
X135818880Y-131195335D01*
X138183406Y-131195335D01*
X138006188Y-131372245D01*
X137884139Y-131666172D01*
X137883861Y-131984432D01*
X138005397Y-132278572D01*
X138230245Y-132503812D01*
X138524172Y-132625861D01*
X138842432Y-132626139D01*
X139136572Y-132504603D01*
X139361812Y-132279755D01*
X139483861Y-131985828D01*
X139483927Y-131909956D01*
X139633939Y-131759944D01*
X139633942Y-131759942D01*
X139769425Y-131557177D01*
X139773545Y-131536464D01*
X139964160Y-131575065D01*
X141780298Y-131575065D01*
X141780298Y-131786629D01*
X141489992Y-132076935D01*
X139964160Y-132076935D01*
X139778871Y-132111799D01*
X139608695Y-132221305D01*
X139494530Y-132388391D01*
X139454365Y-132586730D01*
X139454365Y-133605270D01*
X139489229Y-133790559D01*
X139598735Y-133960735D01*
X139765821Y-134074900D01*
X139964160Y-134115065D01*
X141864080Y-134115065D01*
X142049369Y-134080201D01*
X142219545Y-133970695D01*
X142333710Y-133803609D01*
X142373875Y-133605270D01*
X142373875Y-132960818D01*
X142758399Y-132576294D01*
X142877770Y-132625861D01*
X143196030Y-132626139D01*
X143490170Y-132504603D01*
X143715410Y-132279755D01*
X143837459Y-131985828D01*
X143837525Y-131909957D01*
X144566482Y-131181000D01*
X145175901Y-131181000D01*
X145188989Y-131250559D01*
X145298495Y-131420735D01*
X145465581Y-131534900D01*
X145663920Y-131575065D01*
X147563840Y-131575065D01*
X147749129Y-131540201D01*
X147919305Y-131430695D01*
X148033470Y-131263609D01*
X148073635Y-131065270D01*
X148073635Y-130046730D01*
X148038771Y-129861441D01*
X147929265Y-129691265D01*
X147762179Y-129577100D01*
X147563840Y-129536935D01*
X145663920Y-129536935D01*
X145478631Y-129571799D01*
X145308455Y-129681305D01*
X145194290Y-129848391D01*
X145177561Y-129931000D01*
X144307598Y-129931000D01*
X144068420Y-129978575D01*
X143865656Y-130114058D01*
X143030298Y-130949416D01*
X143030298Y-129796363D01*
X143083110Y-129743643D01*
X143205159Y-129449716D01*
X143205437Y-129131456D01*
X143083901Y-128837316D01*
X142859053Y-128612076D01*
X142565126Y-128490027D01*
X142373875Y-128489860D01*
X142373875Y-128166000D01*
X145163920Y-128166000D01*
X145163920Y-128624726D01*
X145240040Y-128808497D01*
X145380693Y-128949149D01*
X145564464Y-129025270D01*
X146463880Y-129025270D01*
X146588880Y-128900270D01*
X146588880Y-128041000D01*
X146638880Y-128041000D01*
X146638880Y-128900270D01*
X146763880Y-129025270D01*
X147663296Y-129025270D01*
X147847067Y-128949149D01*
X147987720Y-128808497D01*
X148063840Y-128624726D01*
X148063840Y-128166000D01*
X147938840Y-128041000D01*
X146638880Y-128041000D01*
X146588880Y-128041000D01*
X145288920Y-128041000D01*
X145163920Y-128166000D01*
X142373875Y-128166000D01*
X142373875Y-127506730D01*
X142355162Y-127407274D01*
X145163920Y-127407274D01*
X145163920Y-127866000D01*
X145288920Y-127991000D01*
X146588880Y-127991000D01*
X146588880Y-127131730D01*
X146638880Y-127131730D01*
X146638880Y-127991000D01*
X147938840Y-127991000D01*
X148063840Y-127866000D01*
X148063840Y-127407274D01*
X147987720Y-127223503D01*
X147847067Y-127082851D01*
X147663296Y-127006730D01*
X146763880Y-127006730D01*
X146638880Y-127131730D01*
X146588880Y-127131730D01*
X146463880Y-127006730D01*
X145564464Y-127006730D01*
X145380693Y-127082851D01*
X145240040Y-127223503D01*
X145163920Y-127407274D01*
X142355162Y-127407274D01*
X142339011Y-127321441D01*
X142289913Y-127245141D01*
X142607351Y-127245418D01*
X142901491Y-127123882D01*
X143126731Y-126899034D01*
X143248780Y-126605107D01*
X143249058Y-126286847D01*
X143127522Y-125992707D01*
X143040787Y-125905820D01*
X143109289Y-125892931D01*
X143279465Y-125783425D01*
X143393630Y-125616339D01*
X143433795Y-125418000D01*
X143433795Y-124742089D01*
X143443942Y-124731942D01*
X143579425Y-124529177D01*
X143627001Y-124290000D01*
X143627000Y-124289995D01*
X143627000Y-122022964D01*
X143966211Y-121796311D01*
X144178400Y-121478747D01*
X144178400Y-121765456D01*
X144254520Y-121949227D01*
X144395173Y-122089879D01*
X144578944Y-122166000D01*
X145392000Y-122166000D01*
X145517000Y-122041000D01*
X145517000Y-120675000D01*
X145567000Y-120675000D01*
X145567000Y-122041000D01*
X145692000Y-122166000D01*
X146505056Y-122166000D01*
X146688827Y-122089879D01*
X146829480Y-121949227D01*
X146905600Y-121765456D01*
X146905600Y-120800000D01*
X146780600Y-120675000D01*
X145567000Y-120675000D01*
X145517000Y-120675000D01*
X145497000Y-120675000D01*
X145497000Y-120625000D01*
X145517000Y-120625000D01*
X145517000Y-119259000D01*
X145567000Y-119259000D01*
X145567000Y-120625000D01*
X146780600Y-120625000D01*
X146905600Y-120500000D01*
X146905600Y-119534544D01*
X146829480Y-119350773D01*
X146688827Y-119210121D01*
X146505056Y-119134000D01*
X145692000Y-119134000D01*
X145567000Y-119259000D01*
X145517000Y-119259000D01*
X145392000Y-119134000D01*
X144578944Y-119134000D01*
X144395173Y-119210121D01*
X144254520Y-119350773D01*
X144178400Y-119534544D01*
X144178400Y-119821253D01*
X143966211Y-119503689D01*
X143523827Y-119208098D01*
X143002000Y-119104300D01*
X142480173Y-119208098D01*
X142037789Y-119503689D01*
X141742198Y-119946073D01*
X141732000Y-119997342D01*
X141721802Y-119946073D01*
X141426211Y-119503689D01*
X140983827Y-119208098D01*
X140462000Y-119104300D01*
X139940173Y-119208098D01*
X139497789Y-119503689D01*
X139202198Y-119946073D01*
X139098400Y-120467900D01*
X139098400Y-120832100D01*
X139202198Y-121353927D01*
X139497789Y-121796311D01*
X139940173Y-122091902D01*
X140462000Y-122195700D01*
X140983827Y-122091902D01*
X141426211Y-121796311D01*
X141721802Y-121353927D01*
X141732000Y-121302658D01*
X141742198Y-121353927D01*
X142037789Y-121796311D01*
X142377000Y-122022964D01*
X142377000Y-124008205D01*
X141724000Y-124008205D01*
X141538711Y-124043069D01*
X141368535Y-124152575D01*
X141254370Y-124319661D01*
X141224360Y-124467855D01*
X141198931Y-124332711D01*
X141089425Y-124162535D01*
X140922339Y-124048370D01*
X140724000Y-124008205D01*
X139524000Y-124008205D01*
X139338711Y-124043069D01*
X139168535Y-124152575D01*
X139054370Y-124319661D01*
X139014205Y-124518000D01*
X139014205Y-125418000D01*
X139049069Y-125603289D01*
X139158575Y-125773465D01*
X139325661Y-125887630D01*
X139524000Y-125927795D01*
X140349911Y-125927795D01*
X141309337Y-126887221D01*
X141473536Y-126996935D01*
X139964160Y-126996935D01*
X139778871Y-127031799D01*
X139608695Y-127141305D01*
X139494530Y-127308391D01*
X139454365Y-127506730D01*
X139454365Y-128151181D01*
X138750058Y-128855488D01*
X138726435Y-128890842D01*
X138726435Y-127886460D01*
X138691571Y-127701171D01*
X138582065Y-127530995D01*
X138414979Y-127416830D01*
X138216640Y-127376665D01*
X135818880Y-127376665D01*
X135633591Y-127411529D01*
X135463415Y-127521035D01*
X135349250Y-127688121D01*
X135309085Y-127886460D01*
X135309085Y-128286000D01*
X131718279Y-128286000D01*
X131666583Y-128234304D01*
X131342160Y-128017531D01*
X130959476Y-127941411D01*
X130576792Y-128017531D01*
X130252369Y-128234304D01*
X130035596Y-128558727D01*
X129959476Y-128941411D01*
X127317120Y-128941411D01*
X127317120Y-127787004D01*
X127241000Y-127603233D01*
X127100347Y-127462581D01*
X126916576Y-127386460D01*
X125768240Y-127386460D01*
X125643240Y-127511460D01*
X125593240Y-127511460D01*
X125468240Y-127386460D01*
X124319904Y-127386460D01*
X124136133Y-127462581D01*
X124052000Y-127546713D01*
X124052000Y-124926747D01*
X124136133Y-125010879D01*
X124319904Y-125087000D01*
X125468240Y-125087000D01*
X125593240Y-124962000D01*
X125593240Y-123212460D01*
X125643240Y-123212460D01*
X125643240Y-124962000D01*
X125768240Y-125087000D01*
X126916576Y-125087000D01*
X127100347Y-125010879D01*
X127241000Y-124870227D01*
X127317120Y-124686456D01*
X127317120Y-123337460D01*
X127192120Y-123212460D01*
X125643240Y-123212460D01*
X125593240Y-123212460D01*
X125573240Y-123212460D01*
X125573240Y-123162460D01*
X125593240Y-123162460D01*
X125593240Y-121412920D01*
X125643240Y-121412920D01*
X125643240Y-123162460D01*
X127192120Y-123162460D01*
X127317120Y-123037460D01*
X127317120Y-121787920D01*
X135309085Y-121787920D01*
X135309085Y-124587000D01*
X135343949Y-124772289D01*
X135453455Y-124942465D01*
X135620541Y-125056630D01*
X135818880Y-125096795D01*
X138216640Y-125096795D01*
X138401929Y-125061931D01*
X138572105Y-124952425D01*
X138686270Y-124785339D01*
X138726435Y-124587000D01*
X138726435Y-121787920D01*
X138691571Y-121602631D01*
X138582065Y-121432455D01*
X138414979Y-121318290D01*
X138216640Y-121278125D01*
X135818880Y-121278125D01*
X135633591Y-121312989D01*
X135463415Y-121422495D01*
X135349250Y-121589581D01*
X135309085Y-121787920D01*
X127317120Y-121787920D01*
X127317120Y-121688464D01*
X127241000Y-121504693D01*
X127100347Y-121364041D01*
X126916576Y-121287920D01*
X125768240Y-121287920D01*
X125643240Y-121412920D01*
X125593240Y-121412920D01*
X125468240Y-121287920D01*
X124319904Y-121287920D01*
X124136133Y-121364041D01*
X124052000Y-121448173D01*
X124052000Y-118718000D01*
X148744000Y-118718000D01*
X148744000Y-135282000D01*
M02*
