G04 #@! TF.FileFunction,Legend,Top*
%FSLAX46Y46*%
G04 Gerber Fmt 4.6, Leading zero omitted, Abs format (unit mm)*
G04 Created by KiCad (PCBNEW 4.0.1-stable) date Monday, January 04, 2016 'pmt' 12:40:34 pm*
%MOMM*%
G01*
G04 APERTURE LIST*
%ADD10C,0.100000*%
%ADD11C,0.150000*%
%ADD12C,0.203200*%
%ADD13C,0.127000*%
%ADD14C,0.066040*%
%ADD15C,0.063500*%
G04 APERTURE END LIST*
D10*
D11*
X126897428Y-135199429D02*
X127659333Y-135199429D01*
X127278381Y-135580381D02*
X127278381Y-134818476D01*
X128611714Y-134580381D02*
X128135523Y-134580381D01*
X128087904Y-135056571D01*
X128135523Y-135008952D01*
X128230761Y-134961333D01*
X128468857Y-134961333D01*
X128564095Y-135008952D01*
X128611714Y-135056571D01*
X128659333Y-135151810D01*
X128659333Y-135389905D01*
X128611714Y-135485143D01*
X128564095Y-135532762D01*
X128468857Y-135580381D01*
X128230761Y-135580381D01*
X128135523Y-135532762D01*
X128087904Y-135485143D01*
X128945047Y-134580381D02*
X129278380Y-135580381D01*
X129611714Y-134580381D01*
X131278381Y-135485143D02*
X131230762Y-135532762D01*
X131087905Y-135580381D01*
X130992667Y-135580381D01*
X130849809Y-135532762D01*
X130754571Y-135437524D01*
X130706952Y-135342286D01*
X130659333Y-135151810D01*
X130659333Y-135008952D01*
X130706952Y-134818476D01*
X130754571Y-134723238D01*
X130849809Y-134628000D01*
X130992667Y-134580381D01*
X131087905Y-134580381D01*
X131230762Y-134628000D01*
X131278381Y-134675619D01*
X131564095Y-134580381D02*
X132135524Y-134580381D01*
X131849809Y-135580381D02*
X131849809Y-134580381D01*
X133040286Y-135580381D02*
X132706952Y-135104190D01*
X132468857Y-135580381D02*
X132468857Y-134580381D01*
X132849810Y-134580381D01*
X132945048Y-134628000D01*
X132992667Y-134675619D01*
X133040286Y-134770857D01*
X133040286Y-134913714D01*
X132992667Y-135008952D01*
X132945048Y-135056571D01*
X132849810Y-135104190D01*
X132468857Y-135104190D01*
X134230762Y-135580381D02*
X134230762Y-134580381D01*
X134611715Y-134580381D01*
X134706953Y-134628000D01*
X134754572Y-134675619D01*
X134802191Y-134770857D01*
X134802191Y-134913714D01*
X134754572Y-135008952D01*
X134706953Y-135056571D01*
X134611715Y-135104190D01*
X134230762Y-135104190D01*
X135421238Y-134580381D02*
X135611715Y-134580381D01*
X135706953Y-134628000D01*
X135802191Y-134723238D01*
X135849810Y-134913714D01*
X135849810Y-135247048D01*
X135802191Y-135437524D01*
X135706953Y-135532762D01*
X135611715Y-135580381D01*
X135421238Y-135580381D01*
X135326000Y-135532762D01*
X135230762Y-135437524D01*
X135183143Y-135247048D01*
X135183143Y-134913714D01*
X135230762Y-134723238D01*
X135326000Y-134628000D01*
X135421238Y-134580381D01*
X136230762Y-135532762D02*
X136373619Y-135580381D01*
X136611715Y-135580381D01*
X136706953Y-135532762D01*
X136754572Y-135485143D01*
X136802191Y-135389905D01*
X136802191Y-135294667D01*
X136754572Y-135199429D01*
X136706953Y-135151810D01*
X136611715Y-135104190D01*
X136421238Y-135056571D01*
X136326000Y-135008952D01*
X136278381Y-134961333D01*
X136230762Y-134866095D01*
X136230762Y-134770857D01*
X136278381Y-134675619D01*
X136326000Y-134628000D01*
X136421238Y-134580381D01*
X136659334Y-134580381D01*
X136802191Y-134628000D01*
X136779096Y-120150000D02*
X136683858Y-120102381D01*
X136541001Y-120102381D01*
X136398143Y-120150000D01*
X136302905Y-120245238D01*
X136255286Y-120340476D01*
X136207667Y-120530952D01*
X136207667Y-120673810D01*
X136255286Y-120864286D01*
X136302905Y-120959524D01*
X136398143Y-121054762D01*
X136541001Y-121102381D01*
X136636239Y-121102381D01*
X136779096Y-121054762D01*
X136826715Y-121007143D01*
X136826715Y-120673810D01*
X136636239Y-120673810D01*
X137255286Y-121102381D02*
X137255286Y-120102381D01*
X137826715Y-121102381D01*
X137826715Y-120102381D01*
X138302905Y-121102381D02*
X138302905Y-120102381D01*
X138541000Y-120102381D01*
X138683858Y-120150000D01*
X138779096Y-120245238D01*
X138826715Y-120340476D01*
X138874334Y-120530952D01*
X138874334Y-120673810D01*
X138826715Y-120864286D01*
X138779096Y-120959524D01*
X138683858Y-121054762D01*
X138541000Y-121102381D01*
X138302905Y-121102381D01*
X148153429Y-122189714D02*
X148153429Y-121427809D01*
X148534381Y-121808761D02*
X147772476Y-121808761D01*
X147534381Y-120475428D02*
X147534381Y-120951619D01*
X148010571Y-120999238D01*
X147962952Y-120951619D01*
X147915333Y-120856381D01*
X147915333Y-120618285D01*
X147962952Y-120523047D01*
X148010571Y-120475428D01*
X148105810Y-120427809D01*
X148343905Y-120427809D01*
X148439143Y-120475428D01*
X148486762Y-120523047D01*
X148534381Y-120618285D01*
X148534381Y-120856381D01*
X148486762Y-120951619D01*
X148439143Y-120999238D01*
X147534381Y-120142095D02*
X148534381Y-119808762D01*
X147534381Y-119475428D01*
D12*
X126819660Y-134284720D02*
X135816340Y-134284720D01*
X126819660Y-134284720D02*
X126819660Y-132783580D01*
X126819660Y-119486680D02*
X135816340Y-119486680D01*
X135816340Y-132783580D02*
X135816340Y-134284720D01*
X126819660Y-132783580D02*
X128818640Y-132783580D01*
X128818640Y-132783580D02*
X133817360Y-132783580D01*
X133817360Y-132783580D02*
X135816340Y-132783580D01*
X128818640Y-132783580D02*
X128818640Y-129286000D01*
X133817360Y-129286000D02*
X133817360Y-132783580D01*
X126819660Y-132783580D02*
X126819660Y-131284980D01*
X126819660Y-127287020D02*
X126819660Y-125186440D01*
X126819660Y-121086880D02*
X126819660Y-119486680D01*
X135816340Y-119486680D02*
X135816340Y-121188480D01*
X135816340Y-125186440D02*
X135816340Y-127287020D01*
X135816340Y-131284980D02*
X135816340Y-132783580D01*
D13*
X132036420Y-129286000D02*
G75*
G03X132036420Y-129286000I-718420J0D01*
G01*
X131318000Y-130302000D02*
X131318000Y-128270000D01*
X132334000Y-129286000D02*
X130302000Y-129286000D01*
X132036420Y-124714000D02*
G75*
G03X132036420Y-124714000I-718420J0D01*
G01*
X131318000Y-125730000D02*
X131318000Y-123698000D01*
X132334000Y-124714000D02*
X130302000Y-124714000D01*
D12*
X131318000Y-127000000D02*
G75*
G03X128818640Y-129286000I-106680J-2392680D01*
G01*
X133817360Y-129286000D02*
G75*
G03X131318000Y-127000000I-2392680J-106680D01*
G01*
D14*
X146311620Y-130256280D02*
X146311620Y-130855720D01*
X146311620Y-130855720D02*
X147111720Y-130855720D01*
X147111720Y-130256280D02*
X147111720Y-130855720D01*
X146311620Y-130256280D02*
X147111720Y-130256280D01*
X146311620Y-127716280D02*
X146311620Y-128318260D01*
X146311620Y-128318260D02*
X147111720Y-128318260D01*
X147111720Y-127716280D02*
X147111720Y-128318260D01*
X146311620Y-127716280D02*
X147111720Y-127716280D01*
X146311620Y-132793740D02*
X146311620Y-133395720D01*
X146311620Y-133395720D02*
X147111720Y-133395720D01*
X147111720Y-132793740D02*
X147111720Y-133395720D01*
X146311620Y-132793740D02*
X147111720Y-132793740D01*
X140416280Y-127716280D02*
X140416280Y-128318260D01*
X140416280Y-128318260D02*
X141216380Y-128318260D01*
X141216380Y-127716280D02*
X141216380Y-128318260D01*
X140416280Y-127716280D02*
X141216380Y-127716280D01*
X140416280Y-130256280D02*
X140416280Y-130855720D01*
X140416280Y-130855720D02*
X141216380Y-130855720D01*
X141216380Y-130256280D02*
X141216380Y-130855720D01*
X140416280Y-130256280D02*
X141216380Y-130256280D01*
X140416280Y-132793740D02*
X140416280Y-133395720D01*
X140416280Y-133395720D02*
X141216380Y-133395720D01*
X141216380Y-132793740D02*
X141216380Y-133395720D01*
X140416280Y-132793740D02*
X141216380Y-132793740D01*
D13*
X141264640Y-126746000D02*
X146263360Y-126746000D01*
X146263360Y-126746000D02*
X146263360Y-134366000D01*
X146263360Y-134366000D02*
X141264640Y-134366000D01*
X141264640Y-134366000D02*
X141264640Y-126746000D01*
D15*
X145526118Y-130556000D02*
G75*
G03X145526118Y-130556000I-492118J0D01*
G01*
X145526118Y-128016000D02*
G75*
G03X145526118Y-128016000I-492118J0D01*
G01*
X142986118Y-128016000D02*
G75*
G03X142986118Y-128016000I-492118J0D01*
G01*
X142986118Y-130556000D02*
G75*
G03X142986118Y-130556000I-492118J0D01*
G01*
X142986118Y-133096000D02*
G75*
G03X142986118Y-133096000I-492118J0D01*
G01*
X145526118Y-133096000D02*
G75*
G03X145526118Y-133096000I-492118J0D01*
G01*
D11*
X144272000Y-119380000D02*
X139192000Y-119380000D01*
X139192000Y-119380000D02*
X139192000Y-121920000D01*
X139192000Y-121920000D02*
X144272000Y-121920000D01*
X147092000Y-122200000D02*
X145542000Y-122200000D01*
X144272000Y-121920000D02*
X144272000Y-119380000D01*
X145542000Y-119100000D02*
X147092000Y-119100000D01*
X147092000Y-119100000D02*
X147092000Y-122200000D01*
X140724000Y-124293000D02*
X141724000Y-124293000D01*
X141724000Y-125643000D02*
X140724000Y-125643000D01*
X125436381Y-134127714D02*
X126150667Y-134127714D01*
X126293524Y-134175334D01*
X126388762Y-134270572D01*
X126436381Y-134413429D01*
X126436381Y-134508667D01*
X126436381Y-133127714D02*
X126436381Y-133699143D01*
X126436381Y-133413429D02*
X125436381Y-133413429D01*
X125579238Y-133508667D01*
X125674476Y-133603905D01*
X125722095Y-133699143D01*
X125436381Y-132508667D02*
X125436381Y-132413428D01*
X125484000Y-132318190D01*
X125531619Y-132270571D01*
X125626857Y-132222952D01*
X125817333Y-132175333D01*
X126055429Y-132175333D01*
X126245905Y-132222952D01*
X126341143Y-132270571D01*
X126388762Y-132318190D01*
X126436381Y-132413428D01*
X126436381Y-132508667D01*
X126388762Y-132603905D01*
X126341143Y-132651524D01*
X126245905Y-132699143D01*
X126055429Y-132746762D01*
X125817333Y-132746762D01*
X125626857Y-132699143D01*
X125531619Y-132651524D01*
X125484000Y-132603905D01*
X125436381Y-132508667D01*
X126436381Y-131222952D02*
X126436381Y-131794381D01*
X126436381Y-131508667D02*
X125436381Y-131508667D01*
X125579238Y-131603905D01*
X125674476Y-131699143D01*
X125722095Y-131794381D01*
X142486286Y-134580381D02*
X142486286Y-135294667D01*
X142438666Y-135437524D01*
X142343428Y-135532762D01*
X142200571Y-135580381D01*
X142105333Y-135580381D01*
X142962476Y-135580381D02*
X142962476Y-134580381D01*
X143343429Y-134580381D01*
X143438667Y-134628000D01*
X143486286Y-134675619D01*
X143533905Y-134770857D01*
X143533905Y-134913714D01*
X143486286Y-135008952D01*
X143438667Y-135056571D01*
X143343429Y-135104190D01*
X142962476Y-135104190D01*
X144486286Y-135580381D02*
X143914857Y-135580381D01*
X144200571Y-135580381D02*
X144200571Y-134580381D01*
X144105333Y-134723238D01*
X144010095Y-134818476D01*
X143914857Y-134866095D01*
X145105333Y-134580381D02*
X145200572Y-134580381D01*
X145295810Y-134628000D01*
X145343429Y-134675619D01*
X145391048Y-134770857D01*
X145438667Y-134961333D01*
X145438667Y-135199429D01*
X145391048Y-135389905D01*
X145343429Y-135485143D01*
X145295810Y-135532762D01*
X145200572Y-135580381D01*
X145105333Y-135580381D01*
X145010095Y-135532762D01*
X144962476Y-135485143D01*
X144914857Y-135389905D01*
X144867238Y-135199429D01*
X144867238Y-134961333D01*
X144914857Y-134770857D01*
X144962476Y-134675619D01*
X145010095Y-134628000D01*
X145105333Y-134580381D01*
X146391048Y-135580381D02*
X145819619Y-135580381D01*
X146105333Y-135580381D02*
X146105333Y-134580381D01*
X146010095Y-134723238D01*
X145914857Y-134818476D01*
X145819619Y-134866095D01*
X143851524Y-123642381D02*
X143851524Y-122642381D01*
X144232477Y-122642381D01*
X144327715Y-122690000D01*
X144375334Y-122737619D01*
X144422953Y-122832857D01*
X144422953Y-122975714D01*
X144375334Y-123070952D01*
X144327715Y-123118571D01*
X144232477Y-123166190D01*
X143851524Y-123166190D01*
X145375334Y-123642381D02*
X144803905Y-123642381D01*
X145089619Y-123642381D02*
X145089619Y-122642381D01*
X144994381Y-122785238D01*
X144899143Y-122880476D01*
X144803905Y-122928095D01*
X145994381Y-122642381D02*
X146089620Y-122642381D01*
X146184858Y-122690000D01*
X146232477Y-122737619D01*
X146280096Y-122832857D01*
X146327715Y-123023333D01*
X146327715Y-123261429D01*
X146280096Y-123451905D01*
X146232477Y-123547143D01*
X146184858Y-123594762D01*
X146089620Y-123642381D01*
X145994381Y-123642381D01*
X145899143Y-123594762D01*
X145851524Y-123547143D01*
X145803905Y-123451905D01*
X145756286Y-123261429D01*
X145756286Y-123023333D01*
X145803905Y-122832857D01*
X145851524Y-122737619D01*
X145899143Y-122690000D01*
X145994381Y-122642381D01*
X147280096Y-123642381D02*
X146708667Y-123642381D01*
X146994381Y-123642381D02*
X146994381Y-122642381D01*
X146899143Y-122785238D01*
X146803905Y-122880476D01*
X146708667Y-122928095D01*
X144422953Y-125420381D02*
X144089619Y-124944190D01*
X143851524Y-125420381D02*
X143851524Y-124420381D01*
X144232477Y-124420381D01*
X144327715Y-124468000D01*
X144375334Y-124515619D01*
X144422953Y-124610857D01*
X144422953Y-124753714D01*
X144375334Y-124848952D01*
X144327715Y-124896571D01*
X144232477Y-124944190D01*
X143851524Y-124944190D01*
X145375334Y-125420381D02*
X144803905Y-125420381D01*
X145089619Y-125420381D02*
X145089619Y-124420381D01*
X144994381Y-124563238D01*
X144899143Y-124658476D01*
X144803905Y-124706095D01*
X145994381Y-124420381D02*
X146089620Y-124420381D01*
X146184858Y-124468000D01*
X146232477Y-124515619D01*
X146280096Y-124610857D01*
X146327715Y-124801333D01*
X146327715Y-125039429D01*
X146280096Y-125229905D01*
X146232477Y-125325143D01*
X146184858Y-125372762D01*
X146089620Y-125420381D01*
X145994381Y-125420381D01*
X145899143Y-125372762D01*
X145851524Y-125325143D01*
X145803905Y-125229905D01*
X145756286Y-125039429D01*
X145756286Y-124801333D01*
X145803905Y-124610857D01*
X145851524Y-124515619D01*
X145899143Y-124468000D01*
X145994381Y-124420381D01*
X146708667Y-124515619D02*
X146756286Y-124468000D01*
X146851524Y-124420381D01*
X147089620Y-124420381D01*
X147184858Y-124468000D01*
X147232477Y-124515619D01*
X147280096Y-124610857D01*
X147280096Y-124706095D01*
X147232477Y-124848952D01*
X146661048Y-125420381D01*
X147280096Y-125420381D01*
M02*
