G04 #@! TF.FileFunction,Legend,Bot*
%FSLAX46Y46*%
G04 Gerber Fmt 4.6, Leading zero omitted, Abs format (unit mm)*
G04 Created by KiCad (PCBNEW 4.0.1-stable) date Monday, January 04, 2016 'pmt' 12:50:12 pm*
%MOMM*%
G01*
G04 APERTURE LIST*
%ADD10C,0.100000*%
%ADD11C,0.150000*%
G04 APERTURE END LIST*
D10*
D11*
X134966000Y-130144000D02*
X134966000Y-129444000D01*
X133766000Y-129444000D02*
X133766000Y-130144000D01*
X135041000Y-126230000D02*
X135041000Y-125230000D01*
X133691000Y-125230000D02*
X133691000Y-126230000D01*
X144595000Y-125407000D02*
X144595000Y-125732000D01*
X137345000Y-125407000D02*
X137345000Y-125732000D01*
X137345000Y-132657000D02*
X137345000Y-132332000D01*
X144595000Y-132657000D02*
X144595000Y-132332000D01*
X144595000Y-125407000D02*
X144270000Y-125407000D01*
X144595000Y-132657000D02*
X144270000Y-132657000D01*
X137345000Y-132657000D02*
X137670000Y-132657000D01*
X137345000Y-125407000D02*
X137670000Y-125407000D01*
X144595000Y-125732000D02*
X146020000Y-125732000D01*
X133199143Y-128674953D02*
X133246762Y-128627334D01*
X133294381Y-128484477D01*
X133294381Y-128389239D01*
X133246762Y-128246381D01*
X133151524Y-128151143D01*
X133056286Y-128103524D01*
X132865810Y-128055905D01*
X132722952Y-128055905D01*
X132532476Y-128103524D01*
X132437238Y-128151143D01*
X132342000Y-128246381D01*
X132294381Y-128389239D01*
X132294381Y-128484477D01*
X132342000Y-128627334D01*
X132389619Y-128674953D01*
X133294381Y-129627334D02*
X133294381Y-129055905D01*
X133294381Y-129341619D02*
X132294381Y-129341619D01*
X132437238Y-129246381D01*
X132532476Y-129151143D01*
X132580095Y-129055905D01*
X132294381Y-130246381D02*
X132294381Y-130341620D01*
X132342000Y-130436858D01*
X132389619Y-130484477D01*
X132484857Y-130532096D01*
X132675333Y-130579715D01*
X132913429Y-130579715D01*
X133103905Y-130532096D01*
X133199143Y-130484477D01*
X133246762Y-130436858D01*
X133294381Y-130341620D01*
X133294381Y-130246381D01*
X133246762Y-130151143D01*
X133199143Y-130103524D01*
X133103905Y-130055905D01*
X132913429Y-130008286D01*
X132675333Y-130008286D01*
X132484857Y-130055905D01*
X132389619Y-130103524D01*
X132342000Y-130151143D01*
X132294381Y-130246381D01*
X133294381Y-131532096D02*
X133294381Y-130960667D01*
X133294381Y-131246381D02*
X132294381Y-131246381D01*
X132437238Y-131151143D01*
X132532476Y-131055905D01*
X132580095Y-130960667D01*
X133294381Y-124610953D02*
X132818190Y-124277619D01*
X133294381Y-124039524D02*
X132294381Y-124039524D01*
X132294381Y-124420477D01*
X132342000Y-124515715D01*
X132389619Y-124563334D01*
X132484857Y-124610953D01*
X132627714Y-124610953D01*
X132722952Y-124563334D01*
X132770571Y-124515715D01*
X132818190Y-124420477D01*
X132818190Y-124039524D01*
X133294381Y-125563334D02*
X133294381Y-124991905D01*
X133294381Y-125277619D02*
X132294381Y-125277619D01*
X132437238Y-125182381D01*
X132532476Y-125087143D01*
X132580095Y-124991905D01*
X132294381Y-126182381D02*
X132294381Y-126277620D01*
X132342000Y-126372858D01*
X132389619Y-126420477D01*
X132484857Y-126468096D01*
X132675333Y-126515715D01*
X132913429Y-126515715D01*
X133103905Y-126468096D01*
X133199143Y-126420477D01*
X133246762Y-126372858D01*
X133294381Y-126277620D01*
X133294381Y-126182381D01*
X133246762Y-126087143D01*
X133199143Y-126039524D01*
X133103905Y-125991905D01*
X132913429Y-125944286D01*
X132675333Y-125944286D01*
X132484857Y-125991905D01*
X132389619Y-126039524D01*
X132342000Y-126087143D01*
X132294381Y-126182381D01*
X133294381Y-127468096D02*
X133294381Y-126896667D01*
X133294381Y-127182381D02*
X132294381Y-127182381D01*
X132437238Y-127087143D01*
X132532476Y-126991905D01*
X132580095Y-126896667D01*
X142898571Y-123434381D02*
X142898571Y-122434381D01*
X141850952Y-123339143D02*
X141898571Y-123386762D01*
X142041428Y-123434381D01*
X142136666Y-123434381D01*
X142279524Y-123386762D01*
X142374762Y-123291524D01*
X142422381Y-123196286D01*
X142470000Y-123005810D01*
X142470000Y-122862952D01*
X142422381Y-122672476D01*
X142374762Y-122577238D01*
X142279524Y-122482000D01*
X142136666Y-122434381D01*
X142041428Y-122434381D01*
X141898571Y-122482000D01*
X141850952Y-122529619D01*
X140898571Y-123434381D02*
X141470000Y-123434381D01*
X141184286Y-123434381D02*
X141184286Y-122434381D01*
X141279524Y-122577238D01*
X141374762Y-122672476D01*
X141470000Y-122720095D01*
X140279524Y-122434381D02*
X140184285Y-122434381D01*
X140089047Y-122482000D01*
X140041428Y-122529619D01*
X139993809Y-122624857D01*
X139946190Y-122815333D01*
X139946190Y-123053429D01*
X139993809Y-123243905D01*
X140041428Y-123339143D01*
X140089047Y-123386762D01*
X140184285Y-123434381D01*
X140279524Y-123434381D01*
X140374762Y-123386762D01*
X140422381Y-123339143D01*
X140470000Y-123243905D01*
X140517619Y-123053429D01*
X140517619Y-122815333D01*
X140470000Y-122624857D01*
X140422381Y-122529619D01*
X140374762Y-122482000D01*
X140279524Y-122434381D01*
X138993809Y-123434381D02*
X139565238Y-123434381D01*
X139279524Y-123434381D02*
X139279524Y-122434381D01*
X139374762Y-122577238D01*
X139470000Y-122672476D01*
X139565238Y-122720095D01*
M02*
